<svg width="102" height="39" viewBox="0 0 102 39" fill="none" xmlns="http://www.w3.org/2000/svg">
<path fill-rule="evenodd" clip-rule="evenodd" d="M1.09299 17.1591C0.364023 17.7423 0 18.5408 0 19.553C0 20.5266 0.364012 21.3044 1.09299 21.8892L14.1646 31.9385C14.33 32.094 14.5782 32.1719 14.9104 32.1719C15.473 32.1719 16.0118 31.8897 16.5258 31.3246C17.0398 30.7605 17.2964 30.0889 17.2964 29.3095C17.2964 28.4918 17.0468 27.9278 16.5482 27.6153L6.06453 19.5536L16.5482 11.493C17.0468 11.1041 17.2964 10.539 17.2964 9.79871C17.2964 9.01991 17.0385 8.33945 16.5258 7.75459C16.0118 7.16963 15.473 6.87809 14.9104 6.87809C14.5781 6.87809 14.33 6.956 14.1646 7.11151L1.09299 17.1591ZM34.9846 29.3081C34.9846 30.0869 35.2411 30.7591 35.7551 31.3231C36.2691 31.8882 36.8065 32.1705 37.3706 32.1705C37.6682 32.1705 37.8995 32.0924 38.0663 31.937L51.1379 21.8889C51.8659 21.343 52.2309 20.5654 52.2309 19.5515C52.2309 18.5411 51.8659 17.7425 51.1379 17.1576L38.0663 7.11004C37.9 6.95569 37.6682 6.87662 37.3706 6.87662C36.807 6.87662 36.2691 7.16826 35.7551 7.75312C35.2411 8.33745 34.9846 9.01791 34.9846 9.79723C34.9846 10.4986 35.2159 11.0627 35.6804 11.4916L46.1673 19.5521L35.6804 27.6138C35.2164 27.9654 34.9846 28.5289 34.9846 29.3081Z" fill="#1D1B1B"/>
<path d="M20.0434 37.2116C19.9994 36.9046 20.0069 36.6075 20.0658 36.3187L29.1821 1.41041C29.3438 0.667346 29.7836 0.224148 30.5032 0.0813602C31.0257 -0.022988 31.5298 0.0939946 32.0158 0.431202C32.5014 0.770063 32.7888 1.24622 32.8762 1.86021C32.9257 2.2062 32.9046 2.52693 32.8135 2.82129L23.721 37.5454C23.5318 38.3329 23.0453 38.8052 22.2616 38.9617C21.7052 39.0726 21.2172 38.9425 20.7938 38.5729C20.371 38.2021 20.1214 37.7488 20.0434 37.2116Z" fill="#EC4D37"/>
<path d="M71.5461 19.9644L77.772 5.30872H82.1176L74.3875 22.5755V31.63H70.209V22.5755L62.4788 5.30872H66.8244L73.0504 19.9644H71.5461Z" fill="#1D1B1B"/>
<path d="M101.933 31.1668C100.903 31.5598 99.8302 31.8406 98.7159 32.0091C97.6017 32.1775 96.3064 32.2618 94.8299 32.2618C92.8801 32.2618 91.2782 32.0512 90.0247 31.6301C88.799 31.1808 87.838 30.4509 87.1415 29.4401C86.4452 28.4013 85.9577 26.9975 85.6791 25.2287C85.4006 23.4318 85.2612 21.1858 85.2612 18.4905C85.2612 15.739 85.4006 13.4789 85.6791 11.7101C85.9856 9.91319 86.5009 8.50942 87.2251 7.49868C87.9494 6.45983 88.9523 5.72989 90.2336 5.30874C91.5429 4.8876 93.2143 4.67703 95.2478 4.67703C95.8328 4.67703 96.5013 4.71915 97.2535 4.80338C98.0335 4.85952 98.7856 4.95779 99.5098 5.09817C100.262 5.21047 100.889 5.36489 101.39 5.56143L100.847 9.01479C100.151 8.84633 99.3845 8.70598 98.5488 8.59365C97.7131 8.48131 96.9192 8.39708 96.167 8.34096C95.4149 8.28484 94.8021 8.25673 94.3285 8.25673C92.7129 8.25673 91.5429 8.4533 90.8186 8.84633C90.0944 9.21135 89.7322 10.0816 89.7322 11.4574V28.1346C90.4565 28.3312 91.2365 28.4855 92.0721 28.5978C92.9357 28.7102 93.8132 28.7663 94.7046 28.7663C95.8746 28.7663 97.0306 28.6681 98.1727 28.4715C99.3427 28.2749 100.457 28.0223 101.515 27.7135L101.933 31.1668Z" fill="#FF0000"/>
</svg>
